<svg xmlns="http://www.w3.org/2000/svg" viewBox="0 0 64 64" role="img" aria-labelledby="logoTitle logoDesc">
  <title id="logoTitle">Servicio Técnico y Tecnología S.A. Logo</title>
  <desc id="logoDesc">Icono representando dispositivo y mouse para el logo de la empresa.</desc>
  <defs>
    <linearGradient id="logoGrad" x1="0%" y1="0%" x2="100%" y2="100%">
      <stop offset="0%" stop-color="#ffffff"/>
      <stop offset="100%" stop-color="#dbe5ff"/>
    </linearGradient>
  </defs>
  <rect x="2" y="2" width="60" height="60" rx="14" fill="#1b56d0"/>
  <path d="M18 18h28a4 4 0 0 1 4 4v20a4 4 0 0 1-4 4H18a4 4 0 0 1-4-4V22a4 4 0 0 1 4-4Z" fill="#fff"/>
  <path d="M22 24h18v4H22zM22 32h14v4H22z" fill="#1b56d0"/>
  <path d="M32 42c0 2.2-1.8 4-4 4s-4-1.8-4-4 1.8-4 4-4 4 1.8 4 4Z" fill="#1b56d0"/>
  <path d="M34 16h6v14h-6z" fill="#fff" opacity="0.75"/>
  <path d="M36 36h8v10h-8z" fill="#fff" opacity="0.75"/>
</svg>
